<svg width="288" height="157" viewBox="0 0 288 157" fill="none" xmlns="http://www.w3.org/2000/svg">
<rect y="0.5" width="44" height="44" rx="12" fill="white" fill-opacity="0.12"/>
<path fill-rule="evenodd" clip-rule="evenodd" d="M21.1429 19.9421C21.1429 19.469 20.7589 19.085 20.2858 19.085H12.5715C12.0984 19.085 11.7144 19.469 11.7144 19.9421V31.9421C11.7144 32.4152 12.0984 32.7992 12.5715 32.7992H20.2858C20.7589 32.7992 21.1429 32.4152 21.1429 31.9421V19.9421Z" fill="white"/>
<path fill-rule="evenodd" clip-rule="evenodd" d="M32.286 28.5139C32.286 28.0407 31.902 27.6567 31.4289 27.6567H23.7146C23.2414 27.6567 22.8574 28.0407 22.8574 28.5139V31.9425C22.8574 32.4156 23.2414 32.7996 23.7146 32.7996H31.4289C31.902 32.7996 32.286 32.4156 32.286 31.9425V28.5139Z" fill="white"/>
<path fill-rule="evenodd" clip-rule="evenodd" d="M21.1429 13.0852C21.1429 12.612 20.7589 12.228 20.2858 12.228H12.5715C12.0984 12.228 11.7144 12.612 11.7144 13.0852V16.5137C11.7144 16.9869 12.0984 17.3709 12.5715 17.3709H20.2858C20.7589 17.3709 21.1429 16.9869 21.1429 16.5137V13.0852Z" fill="white"/>
<path fill-rule="evenodd" clip-rule="evenodd" d="M32.286 13.0852C32.286 12.612 31.902 12.228 31.4289 12.228H23.7146C23.2414 12.228 22.8574 12.612 22.8574 13.0852V25.0852C22.8574 25.5583 23.2414 25.9423 23.7146 25.9423H31.4289C31.902 25.9423 32.286 25.5583 32.286 25.0852V13.0852Z" fill="white"/>
<path d="M55.1477 28.5V16.8636H59.6023C60.4432 16.8636 61.142 16.9962 61.6989 17.2614C62.2595 17.5227 62.678 17.8807 62.9545 18.3352C63.2348 18.7898 63.375 19.3049 63.375 19.8807C63.375 20.3542 63.2841 20.7595 63.1023 21.0966C62.9205 21.4299 62.6761 21.7008 62.3693 21.9091C62.0625 22.1174 61.7197 22.267 61.3409 22.358V22.4716C61.7538 22.4943 62.1496 22.6212 62.5284 22.8523C62.911 23.0795 63.2235 23.4015 63.4659 23.8182C63.7083 24.2348 63.8295 24.7386 63.8295 25.3295C63.8295 25.9318 63.6837 26.4735 63.392 26.9545C63.1004 27.4318 62.661 27.8087 62.0739 28.0852C61.4867 28.3617 60.7481 28.5 59.858 28.5H55.1477ZM57.2557 26.7386H59.5227C60.2879 26.7386 60.839 26.5928 61.1761 26.3011C61.517 26.0057 61.6875 25.6269 61.6875 25.1648C61.6875 24.8201 61.6023 24.5095 61.4318 24.233C61.2614 23.9527 61.0189 23.733 60.7045 23.5739C60.3902 23.411 60.0152 23.3295 59.5795 23.3295H57.2557V26.7386ZM57.2557 21.8125H59.3409C59.7045 21.8125 60.0322 21.7462 60.3239 21.6136C60.6155 21.4773 60.8447 21.286 61.0114 21.0398C61.1818 20.7898 61.267 20.4943 61.267 20.1534C61.267 19.7027 61.108 19.3314 60.7898 19.0398C60.4754 18.7481 60.0076 18.6023 59.3864 18.6023H57.2557V21.8125ZM71.1349 24.8295V19.7727H73.1918V28.5H71.1974V26.9489H71.1065C70.9096 27.4375 70.5857 27.8371 70.1349 28.1477C69.688 28.4583 69.1368 28.6136 68.4815 28.6136C67.9096 28.6136 67.4039 28.4867 66.9645 28.233C66.5289 27.9754 66.188 27.6023 65.9418 27.1136C65.6955 26.6212 65.5724 26.0265 65.5724 25.3295V19.7727H67.6293V25.0114C67.6293 25.5644 67.7808 26.0038 68.0838 26.3295C68.3868 26.6553 68.7846 26.8182 69.277 26.8182C69.58 26.8182 69.8736 26.7443 70.1577 26.5966C70.4418 26.4489 70.6747 26.2292 70.8565 25.9375C71.0421 25.642 71.1349 25.2727 71.1349 24.8295ZM76.5852 31.7727C76.3049 31.7727 76.0455 31.75 75.8068 31.7045C75.572 31.6629 75.3845 31.6136 75.2443 31.5568L75.7216 29.9545C76.0208 30.0417 76.2879 30.0833 76.5227 30.0795C76.7576 30.0758 76.964 30.0019 77.142 29.858C77.3239 29.7178 77.4773 29.483 77.6023 29.1534L77.7784 28.6818L74.6136 19.7727H76.7955L78.8068 26.3636H78.8977L80.9148 19.7727H83.1023L79.608 29.5568C79.4451 30.0189 79.2292 30.4148 78.9602 30.7443C78.6913 31.0777 78.3617 31.3314 77.9716 31.5057C77.5852 31.6837 77.1231 31.7727 76.5852 31.7727ZM90.5511 16.8636V28.5H88.4943V16.8636H90.5511ZM95.1776 28.6761C94.6245 28.6761 94.1264 28.5777 93.6832 28.3807C93.2438 28.1799 92.8954 27.8845 92.6378 27.4943C92.384 27.1042 92.2571 26.6231 92.2571 26.0511C92.2571 25.5587 92.348 25.1515 92.5298 24.8295C92.7116 24.5076 92.9598 24.25 93.2741 24.0568C93.5885 23.8636 93.9427 23.7178 94.3366 23.6193C94.7344 23.517 95.1454 23.4432 95.5696 23.3977C96.081 23.3447 96.4957 23.2973 96.8139 23.2557C97.1321 23.2102 97.3632 23.142 97.5071 23.0511C97.6548 22.9564 97.7287 22.8106 97.7287 22.6136V22.5795C97.7287 22.1515 97.6018 21.8201 97.348 21.5852C97.0942 21.3504 96.7287 21.233 96.2514 21.233C95.7476 21.233 95.348 21.3428 95.0526 21.5625C94.7609 21.7822 94.5639 22.0417 94.4616 22.3409L92.5412 22.0682C92.6927 21.5379 92.9427 21.0947 93.2912 20.7386C93.6397 20.3788 94.0658 20.1098 94.5696 19.9318C95.0734 19.75 95.6302 19.6591 96.2401 19.6591C96.6605 19.6591 97.0791 19.7083 97.4957 19.8068C97.9124 19.9053 98.2931 20.0682 98.6378 20.2955C98.9825 20.5189 99.259 20.8239 99.4673 21.2102C99.6795 21.5966 99.7855 22.0795 99.7855 22.6591V28.5H97.8082V27.3011H97.7401C97.6151 27.5436 97.4389 27.7708 97.2116 27.983C96.9882 28.1913 96.706 28.3598 96.3651 28.4886C96.0279 28.6136 95.6321 28.6761 95.1776 28.6761ZM95.7116 27.1648C96.1245 27.1648 96.4825 27.0833 96.7855 26.9205C97.0885 26.7538 97.3215 26.5341 97.4844 26.2614C97.651 25.9886 97.7344 25.6913 97.7344 25.3693V24.3409C97.67 24.3939 97.5601 24.4432 97.4048 24.4886C97.2533 24.5341 97.0829 24.5739 96.8935 24.608C96.7041 24.642 96.5166 24.6723 96.331 24.6989C96.1454 24.7254 95.9844 24.7481 95.848 24.767C95.5412 24.8087 95.2666 24.8769 95.0241 24.9716C94.7817 25.0663 94.5904 25.1989 94.4503 25.3693C94.3101 25.536 94.2401 25.7519 94.2401 26.017C94.2401 26.3958 94.3783 26.6818 94.6548 26.875C94.9313 27.0682 95.2836 27.1648 95.7116 27.1648ZM107.416 24.8295V19.7727H109.473V28.5H107.479V26.9489H107.388C107.191 27.4375 106.867 27.8371 106.416 28.1477C105.969 28.4583 105.418 28.6136 104.763 28.6136C104.191 28.6136 103.685 28.4867 103.246 28.233C102.81 27.9754 102.469 27.6023 102.223 27.1136C101.977 26.6212 101.854 26.0265 101.854 25.3295V19.7727H103.911V25.0114C103.911 25.5644 104.062 26.0038 104.365 26.3295C104.668 26.6553 105.066 26.8182 105.558 26.8182C105.861 26.8182 106.155 26.7443 106.439 26.5966C106.723 26.4489 106.956 26.2292 107.138 25.9375C107.323 25.642 107.416 25.2727 107.416 24.8295ZM113.645 23.3864V28.5H111.588V19.7727H113.554V21.2557H113.656C113.857 20.767 114.177 20.3788 114.616 20.0909C115.06 19.803 115.607 19.6591 116.259 19.6591C116.861 19.6591 117.385 19.7879 117.832 20.0455C118.283 20.303 118.632 20.6761 118.878 21.1648C119.128 21.6534 119.251 22.2462 119.247 22.9432V28.5H117.19V23.2614C117.19 22.678 117.039 22.2216 116.736 21.892C116.437 21.5625 116.022 21.3977 115.491 21.3977C115.132 21.3977 114.812 21.4773 114.531 21.6364C114.255 21.7917 114.037 22.017 113.878 22.3125C113.723 22.608 113.645 22.9659 113.645 23.3864ZM125.145 28.6705C124.274 28.6705 123.526 28.4792 122.901 28.0966C122.279 27.714 121.8 27.1856 121.463 26.5114C121.13 25.8333 120.963 25.053 120.963 24.1705C120.963 23.2841 121.134 22.5019 121.474 21.8239C121.815 21.142 122.296 20.6117 122.918 20.233C123.543 19.8504 124.281 19.6591 125.134 19.6591C125.842 19.6591 126.469 19.7898 127.014 20.0511C127.563 20.3087 128.001 20.6742 128.327 21.1477C128.652 21.6174 128.838 22.1667 128.884 22.7955H126.918C126.838 22.375 126.649 22.0246 126.349 21.7443C126.054 21.4602 125.658 21.3182 125.162 21.3182C124.741 21.3182 124.372 21.4318 124.054 21.6591C123.736 21.8826 123.488 22.2045 123.31 22.625C123.135 23.0455 123.048 23.5492 123.048 24.1364C123.048 24.7311 123.135 25.2424 123.31 25.6705C123.484 26.0947 123.728 26.4223 124.043 26.6534C124.361 26.8807 124.734 26.9943 125.162 26.9943C125.465 26.9943 125.736 26.9375 125.974 26.8239C126.217 26.7064 126.42 26.5379 126.582 26.3182C126.745 26.0985 126.857 25.8314 126.918 25.517H128.884C128.834 26.1345 128.652 26.6818 128.338 27.1591C128.024 27.6326 127.596 28.0038 127.054 28.2727C126.512 28.5379 125.876 28.6705 125.145 28.6705ZM132.629 23.3864V28.5H130.572V16.8636H132.584V21.2557H132.686C132.891 20.7633 133.207 20.375 133.635 20.0909C134.067 19.803 134.616 19.6591 135.283 19.6591C135.889 19.6591 136.417 19.786 136.868 20.0398C137.319 20.2936 137.667 20.6648 137.913 21.1534C138.163 21.642 138.288 22.2386 138.288 22.9432V28.5H136.232V23.2614C136.232 22.6742 136.08 22.2178 135.777 21.892C135.478 21.5625 135.057 21.3977 134.516 21.3977C134.152 21.3977 133.826 21.4773 133.538 21.6364C133.254 21.7917 133.031 22.017 132.868 22.3125C132.709 22.608 132.629 22.9659 132.629 23.3864ZM145.675 22.8068V24.5H140.436V22.8068H145.675ZM147.838 28.5V19.7727H149.832V21.2273H149.923C150.082 20.7235 150.355 20.3352 150.741 20.0625C151.132 19.786 151.577 19.6477 152.077 19.6477C152.19 19.6477 152.317 19.6534 152.457 19.6648C152.601 19.6723 152.721 19.6856 152.815 19.7045V21.5966C152.728 21.5663 152.59 21.5398 152.401 21.517C152.215 21.4905 152.035 21.4773 151.861 21.4773C151.486 21.4773 151.149 21.5587 150.849 21.7216C150.554 21.8807 150.321 22.1023 150.151 22.3864C149.98 22.6705 149.895 22.9981 149.895 23.3693V28.5H147.838ZM157.686 28.6705C156.811 28.6705 156.055 28.4886 155.419 28.125C154.786 27.7576 154.3 27.2386 153.959 26.5682C153.618 25.8939 153.447 25.1004 153.447 24.1875C153.447 23.2898 153.618 22.5019 153.959 21.8239C154.304 21.142 154.785 20.6117 155.402 20.233C156.019 19.8504 156.745 19.6591 157.578 19.6591C158.116 19.6591 158.624 19.7462 159.101 19.9205C159.582 20.0909 160.006 20.3561 160.374 20.7159C160.745 21.0758 161.036 21.5341 161.249 22.0909C161.461 22.6439 161.567 23.303 161.567 24.0682V24.6989H154.413V23.3125H159.595C159.591 22.9186 159.506 22.5682 159.339 22.2614C159.173 21.9508 158.94 21.7064 158.641 21.5284C158.345 21.3504 158 21.2614 157.607 21.2614C157.186 21.2614 156.817 21.3636 156.499 21.5682C156.18 21.7689 155.932 22.0341 155.754 22.3636C155.58 22.6894 155.491 23.0473 155.487 23.4375V24.6477C155.487 25.1553 155.58 25.5909 155.766 25.9545C155.951 26.3144 156.211 26.5909 156.544 26.7841C156.877 26.9735 157.268 27.0682 157.714 27.0682C158.014 27.0682 158.285 27.0265 158.527 26.9432C158.769 26.8561 158.98 26.7292 159.158 26.5625C159.336 26.3958 159.47 26.1894 159.561 25.9432L161.482 26.1591C161.36 26.6667 161.129 27.1098 160.788 27.4886C160.451 27.8636 160.019 28.1553 159.493 28.3636C158.966 28.5682 158.364 28.6705 157.686 28.6705ZM165.818 28.6761C165.265 28.6761 164.767 28.5777 164.324 28.3807C163.884 28.1799 163.536 27.8845 163.278 27.4943C163.025 27.1042 162.898 26.6231 162.898 26.0511C162.898 25.5587 162.989 25.1515 163.17 24.8295C163.352 24.5076 163.6 24.25 163.915 24.0568C164.229 23.8636 164.583 23.7178 164.977 23.6193C165.375 23.517 165.786 23.4432 166.21 23.3977C166.722 23.3447 167.136 23.2973 167.455 23.2557C167.773 23.2102 168.004 23.142 168.148 23.0511C168.295 22.9564 168.369 22.8106 168.369 22.6136V22.5795C168.369 22.1515 168.242 21.8201 167.989 21.5852C167.735 21.3504 167.369 21.233 166.892 21.233C166.388 21.233 165.989 21.3428 165.693 21.5625C165.402 21.7822 165.205 22.0417 165.102 22.3409L163.182 22.0682C163.333 21.5379 163.583 21.0947 163.932 20.7386C164.28 20.3788 164.706 20.1098 165.21 19.9318C165.714 19.75 166.271 19.6591 166.881 19.6591C167.301 19.6591 167.72 19.7083 168.136 19.8068C168.553 19.9053 168.934 20.0682 169.278 20.2955C169.623 20.5189 169.9 20.8239 170.108 21.2102C170.32 21.5966 170.426 22.0795 170.426 22.6591V28.5H168.449V27.3011H168.381C168.256 27.5436 168.08 27.7708 167.852 27.983C167.629 28.1913 167.347 28.3598 167.006 28.4886C166.669 28.6136 166.273 28.6761 165.818 28.6761ZM166.352 27.1648C166.765 27.1648 167.123 27.0833 167.426 26.9205C167.729 26.7538 167.962 26.5341 168.125 26.2614C168.292 25.9886 168.375 25.6913 168.375 25.3693V24.3409C168.311 24.3939 168.201 24.4432 168.045 24.4886C167.894 24.5341 167.723 24.5739 167.534 24.608C167.345 24.642 167.157 24.6723 166.972 24.6989C166.786 24.7254 166.625 24.7481 166.489 24.767C166.182 24.8087 165.907 24.8769 165.665 24.9716C165.422 25.0663 165.231 25.1989 165.091 25.3693C164.951 25.536 164.881 25.7519 164.881 26.017C164.881 26.3958 165.019 26.6818 165.295 26.875C165.572 27.0682 165.924 27.1648 166.352 27.1648ZM175.733 28.6534C175.047 28.6534 174.434 28.4773 173.892 28.125C173.35 27.7727 172.922 27.2614 172.608 26.5909C172.294 25.9205 172.136 25.1061 172.136 24.1477C172.136 23.178 172.295 22.3598 172.614 21.6932C172.936 21.0227 173.369 20.517 173.915 20.1761C174.46 19.8314 175.068 19.6591 175.739 19.6591C176.25 19.6591 176.67 19.7462 177 19.9205C177.33 20.0909 177.591 20.2973 177.784 20.5398C177.977 20.7784 178.127 21.0038 178.233 21.2159H178.318V16.8636H180.381V28.5H178.358V27.125H178.233C178.127 27.3371 177.973 27.5625 177.773 27.8011C177.572 28.036 177.307 28.2367 176.977 28.4034C176.648 28.5701 176.233 28.6534 175.733 28.6534ZM176.307 26.9659C176.742 26.9659 177.114 26.8485 177.42 26.6136C177.727 26.375 177.96 26.0436 178.119 25.6193C178.278 25.1951 178.358 24.7008 178.358 24.1364C178.358 23.572 178.278 23.0814 178.119 22.6648C177.964 22.2481 177.733 21.9242 177.426 21.6932C177.123 21.4621 176.75 21.3466 176.307 21.3466C175.848 21.3466 175.466 21.4659 175.159 21.7045C174.852 21.9432 174.621 22.2727 174.466 22.6932C174.311 23.1136 174.233 23.5947 174.233 24.1364C174.233 24.6818 174.311 25.1686 174.466 25.5966C174.625 26.0208 174.858 26.3561 175.165 26.6023C175.475 26.8447 175.856 26.9659 176.307 26.9659ZM183.851 31.7727C183.571 31.7727 183.311 31.75 183.072 31.7045C182.838 31.6629 182.65 31.6136 182.51 31.5568L182.987 29.9545C183.286 30.0417 183.554 30.0833 183.788 30.0795C184.023 30.0758 184.23 30.0019 184.408 29.858C184.589 29.7178 184.743 29.483 184.868 29.1534L185.044 28.6818L181.879 19.7727H184.061L186.072 26.3636H186.163L188.18 19.7727H190.368L186.874 29.5568C186.711 30.0189 186.495 30.4148 186.226 30.7443C185.957 31.0777 185.627 31.3314 185.237 31.5057C184.851 31.6837 184.389 31.7727 183.851 31.7727ZM200.118 19.7727V21.3636H195.101V19.7727H200.118ZM196.339 17.6818H198.396V25.875C198.396 26.1515 198.438 26.3636 198.521 26.5114C198.608 26.6553 198.722 26.7538 198.862 26.8068C199.002 26.8598 199.158 26.8864 199.328 26.8864C199.457 26.8864 199.574 26.8769 199.68 26.858C199.79 26.839 199.874 26.822 199.93 26.8068L200.277 28.4148C200.167 28.4527 200.01 28.4943 199.805 28.5398C199.605 28.5852 199.358 28.6117 199.067 28.6193C198.552 28.6345 198.088 28.5568 197.675 28.3864C197.262 28.2121 196.934 27.9432 196.692 27.5795C196.453 27.2159 196.336 26.7614 196.339 26.2159V17.6818ZM205.608 28.6705C204.733 28.6705 203.977 28.4886 203.341 28.125C202.708 27.7576 202.222 27.2386 201.881 26.5682C201.54 25.8939 201.369 25.1004 201.369 24.1875C201.369 23.2898 201.54 22.5019 201.881 21.8239C202.225 21.142 202.706 20.6117 203.324 20.233C203.941 19.8504 204.667 19.6591 205.5 19.6591C206.038 19.6591 206.545 19.7462 207.023 19.9205C207.504 20.0909 207.928 20.3561 208.295 20.7159C208.667 21.0758 208.958 21.5341 209.17 22.0909C209.383 22.6439 209.489 23.303 209.489 24.0682V24.6989H202.335V23.3125H207.517C207.513 22.9186 207.428 22.5682 207.261 22.2614C207.095 21.9508 206.862 21.7064 206.562 21.5284C206.267 21.3504 205.922 21.2614 205.528 21.2614C205.108 21.2614 204.739 21.3636 204.42 21.5682C204.102 21.7689 203.854 22.0341 203.676 22.3636C203.502 22.6894 203.413 23.0473 203.409 23.4375V24.6477C203.409 25.1553 203.502 25.5909 203.688 25.9545C203.873 26.3144 204.133 26.5909 204.466 26.7841C204.799 26.9735 205.189 27.0682 205.636 27.0682C205.936 27.0682 206.206 27.0265 206.449 26.9432C206.691 26.8561 206.902 26.7292 207.08 26.5625C207.258 26.3958 207.392 26.1894 207.483 25.9432L209.403 26.1591C209.282 26.6667 209.051 27.1098 208.71 27.4886C208.373 27.8636 207.941 28.1553 207.415 28.3636C206.888 28.5682 206.286 28.6705 205.608 28.6705ZM211.229 28.5V19.7727H213.195V21.2557H213.297C213.479 20.7557 213.78 20.3655 214.2 20.0852C214.621 19.8011 215.123 19.6591 215.706 19.6591C216.297 19.6591 216.795 19.803 217.2 20.0909C217.609 20.375 217.897 20.7633 218.064 21.2557H218.155C218.348 20.7708 218.674 20.3845 219.132 20.0966C219.594 19.8049 220.142 19.6591 220.774 19.6591C221.577 19.6591 222.232 19.9129 222.74 20.4205C223.248 20.928 223.501 21.6686 223.501 22.642V28.5H221.439V22.9602C221.439 22.4186 221.295 22.0227 221.007 21.7727C220.719 21.5189 220.367 21.392 219.95 21.392C219.454 21.392 219.066 21.5473 218.786 21.858C218.509 22.1648 218.371 22.5644 218.371 23.0568V28.5H216.354V22.875C216.354 22.4242 216.217 22.0644 215.945 21.7955C215.676 21.5265 215.323 21.392 214.888 21.392C214.592 21.392 214.323 21.4678 214.081 21.6193C213.839 21.767 213.645 21.9773 213.501 22.25C213.357 22.5189 213.286 22.8333 213.286 23.1932V28.5H211.229ZM225.588 31.7727V19.7727H227.611V21.2159H227.73C227.836 21.0038 227.986 20.7784 228.179 20.5398C228.372 20.2973 228.634 20.0909 228.963 19.9205C229.293 19.7462 229.713 19.6591 230.224 19.6591C230.899 19.6591 231.507 19.8314 232.048 20.1761C232.594 20.517 233.026 21.0227 233.344 21.6932C233.666 22.3598 233.827 23.178 233.827 24.1477C233.827 25.1061 233.67 25.9205 233.355 26.5909C233.041 27.2614 232.613 27.7727 232.071 28.125C231.529 28.4773 230.916 28.6534 230.23 28.6534C229.73 28.6534 229.315 28.5701 228.986 28.4034C228.656 28.2367 228.391 28.036 228.19 27.8011C227.993 27.5625 227.84 27.3371 227.73 27.125H227.645V31.7727H225.588ZM227.605 24.1364C227.605 24.7008 227.685 25.1951 227.844 25.6193C228.007 26.0436 228.24 26.375 228.543 26.6136C228.849 26.8485 229.221 26.9659 229.656 26.9659C230.111 26.9659 230.491 26.8447 230.798 26.6023C231.105 26.3561 231.336 26.0208 231.491 25.5966C231.651 25.1686 231.73 24.6818 231.73 24.1364C231.73 23.5947 231.652 23.1136 231.497 22.6932C231.342 22.2727 231.111 21.9432 230.804 21.7045C230.497 21.4659 230.115 21.3466 229.656 21.3466C229.217 21.3466 228.844 21.4621 228.537 21.6932C228.23 21.9242 227.997 22.2481 227.838 22.6648C227.683 23.0814 227.605 23.572 227.605 24.1364ZM237.645 16.8636V28.5H235.588V16.8636H237.645ZM242.271 28.6761C241.718 28.6761 241.22 28.5777 240.777 28.3807C240.338 28.1799 239.989 27.8845 239.732 27.4943C239.478 27.1042 239.351 26.6231 239.351 26.0511C239.351 25.5587 239.442 25.1515 239.624 24.8295C239.805 24.5076 240.054 24.25 240.368 24.0568C240.682 23.8636 241.036 23.7178 241.43 23.6193C241.828 23.517 242.239 23.4432 242.663 23.3977C243.175 23.3447 243.589 23.2973 243.908 23.2557C244.226 23.2102 244.457 23.142 244.601 23.0511C244.749 22.9564 244.822 22.8106 244.822 22.6136V22.5795C244.822 22.1515 244.696 21.8201 244.442 21.5852C244.188 21.3504 243.822 21.233 243.345 21.233C242.841 21.233 242.442 21.3428 242.146 21.5625C241.855 21.7822 241.658 22.0417 241.555 22.3409L239.635 22.0682C239.786 21.5379 240.036 21.0947 240.385 20.7386C240.733 20.3788 241.16 20.1098 241.663 19.9318C242.167 19.75 242.724 19.6591 243.334 19.6591C243.754 19.6591 244.173 19.7083 244.589 19.8068C245.006 19.9053 245.387 20.0682 245.732 20.2955C246.076 20.5189 246.353 20.8239 246.561 21.2102C246.773 21.5966 246.879 22.0795 246.879 22.6591V28.5H244.902V27.3011H244.834C244.709 27.5436 244.533 27.7708 244.305 27.983C244.082 28.1913 243.8 28.3598 243.459 28.4886C243.122 28.6136 242.726 28.6761 242.271 28.6761ZM242.805 27.1648C243.218 27.1648 243.576 27.0833 243.879 26.9205C244.182 26.7538 244.415 26.5341 244.578 26.2614C244.745 25.9886 244.828 25.6913 244.828 25.3693V24.3409C244.764 24.3939 244.654 24.4432 244.499 24.4886C244.347 24.5341 244.177 24.5739 243.987 24.608C243.798 24.642 243.61 24.6723 243.425 24.6989C243.239 24.7254 243.078 24.7481 242.942 24.767C242.635 24.8087 242.36 24.8769 242.118 24.9716C241.875 25.0663 241.684 25.1989 241.544 25.3693C241.404 25.536 241.334 25.7519 241.334 26.017C241.334 26.3958 241.472 26.6818 241.749 26.875C242.025 27.0682 242.377 27.1648 242.805 27.1648ZM253.305 19.7727V21.3636H248.288V19.7727H253.305ZM249.527 17.6818H251.584V25.875C251.584 26.1515 251.625 26.3636 251.709 26.5114C251.796 26.6553 251.91 26.7538 252.05 26.8068C252.19 26.8598 252.345 26.8864 252.516 26.8864C252.644 26.8864 252.762 26.8769 252.868 26.858C252.978 26.839 253.061 26.822 253.118 26.8068L253.464 28.4148C253.355 28.4527 253.197 28.4943 252.993 28.5398C252.792 28.5852 252.546 28.6117 252.254 28.6193C251.739 28.6345 251.275 28.5568 250.862 28.3864C250.449 28.2121 250.122 27.9432 249.879 27.5795C249.641 27.2159 249.523 26.7614 249.527 26.2159V17.6818ZM258.795 28.6705C257.92 28.6705 257.165 28.4886 256.528 28.125C255.896 27.7576 255.409 27.2386 255.068 26.5682C254.727 25.8939 254.557 25.1004 254.557 24.1875C254.557 23.2898 254.727 22.5019 255.068 21.8239C255.413 21.142 255.894 20.6117 256.511 20.233C257.129 19.8504 257.854 19.6591 258.688 19.6591C259.225 19.6591 259.733 19.7462 260.21 19.9205C260.691 20.0909 261.116 20.3561 261.483 20.7159C261.854 21.0758 262.146 21.5341 262.358 22.0909C262.57 22.6439 262.676 23.303 262.676 24.0682V24.6989H255.523V23.3125H260.705C260.701 22.9186 260.616 22.5682 260.449 22.2614C260.282 21.9508 260.049 21.7064 259.75 21.5284C259.455 21.3504 259.11 21.2614 258.716 21.2614C258.295 21.2614 257.926 21.3636 257.608 21.5682C257.29 21.7689 257.042 22.0341 256.864 22.3636C256.689 22.6894 256.6 23.0473 256.597 23.4375V24.6477C256.597 25.1553 256.689 25.5909 256.875 25.9545C257.061 26.3144 257.32 26.5909 257.653 26.7841C257.987 26.9735 258.377 27.0682 258.824 27.0682C259.123 27.0682 259.394 27.0265 259.636 26.9432C259.879 26.8561 260.089 26.7292 260.267 26.5625C260.445 26.3958 260.58 26.1894 260.67 25.9432L262.591 26.1591C262.47 26.6667 262.239 27.1098 261.898 27.4886C261.561 27.8636 261.129 28.1553 260.602 28.3636C260.076 28.5682 259.473 28.6705 258.795 28.6705Z" fill="white"/>
<rect y="56.5" width="44" height="44" rx="12" fill="white" fill-opacity="0.12"/>
<g clip-path="url(#clip0_108_2778)">
<path d="M22 66.5C15.372 66.5 10 71.8726 10 78.5C10 85.1274 15.372 90.5 22 90.5C28.628 90.5 34 85.1269 34 78.5C34 71.8731 28.6274 66.5 22 66.5ZM22.7264 83.8454V85.2345C22.7264 85.4512 22.5577 85.6089 22.3405 85.6089H21.4146C21.1974 85.6089 21.0224 85.4512 21.0224 85.2345V83.9676C20.1702 83.929 19.3106 83.7472 18.6599 83.4997C18.3074 83.366 18.1111 82.9884 18.2045 82.6229L18.3555 82.0349C18.4082 81.8286 18.5461 81.6563 18.7346 81.5597C18.9231 81.4615 19.1445 81.4516 19.3424 81.5273C19.9623 81.767 20.6945 81.9414 21.4762 81.9414C22.4716 81.9414 23.1531 81.5571 23.1531 80.8583C23.1531 80.1946 22.5943 79.7753 21.3013 79.3382C19.4323 78.7094 18.1523 77.8363 18.1523 76.1417C18.1523 74.6048 19.2401 73.3995 21.0997 73.0324V71.7655C21.0997 71.5488 21.2851 71.3545 21.5023 71.3545H22.4282C22.6455 71.3545 22.8047 71.5488 22.8047 71.7655V72.9097C23.6178 72.9447 24.2048 73.0653 24.6957 73.2251C25.067 73.3463 25.2863 73.7353 25.1887 74.1144L25.056 74.6408C25.0043 74.8414 24.8717 75.0116 24.6899 75.1098C24.5082 75.208 24.2936 75.2257 24.0972 75.1583C23.6512 75.0053 23.0695 74.8664 22.3321 74.8664C21.1968 74.8664 20.8297 75.3557 20.8297 75.8451C20.8297 76.4216 21.4412 76.7882 22.9259 77.3475C25.0043 78.0812 25.8393 79.0421 25.8393 80.6134C25.8388 82.168 24.7406 83.4966 22.7264 83.8454Z" fill="white"/>
</g>
<path d="M55.1477 72.8636H57.7273L61.1818 81.2955H61.3182L64.7727 72.8636H67.3523V84.5H65.3295V76.5057H65.2216L62.0057 84.4659H60.4943L57.2784 76.4886H57.1705V84.5H55.1477V72.8636ZM73.3636 84.6705C72.5114 84.6705 71.7727 84.483 71.1477 84.108C70.5227 83.733 70.0379 83.2083 69.6932 82.5341C69.3523 81.8598 69.1818 81.072 69.1818 80.1705C69.1818 79.2689 69.3523 78.4792 69.6932 77.8011C70.0379 77.1231 70.5227 76.5966 71.1477 76.2216C71.7727 75.8466 72.5114 75.6591 73.3636 75.6591C74.2159 75.6591 74.9545 75.8466 75.5795 76.2216C76.2045 76.5966 76.6875 77.1231 77.0284 77.8011C77.3731 78.4792 77.5455 79.2689 77.5455 80.1705C77.5455 81.072 77.3731 81.8598 77.0284 82.5341C76.6875 83.2083 76.2045 83.733 75.5795 84.108C74.9545 84.483 74.2159 84.6705 73.3636 84.6705ZM73.375 83.0227C73.8371 83.0227 74.2235 82.8958 74.5341 82.642C74.8447 82.3845 75.0758 82.0398 75.2273 81.608C75.3826 81.1761 75.4602 80.6951 75.4602 80.1648C75.4602 79.6307 75.3826 79.1477 75.2273 78.7159C75.0758 78.2803 74.8447 77.9337 74.5341 77.6761C74.2235 77.4186 73.8371 77.2898 73.375 77.2898C72.9015 77.2898 72.5076 77.4186 72.1932 77.6761C71.8826 77.9337 71.6496 78.2803 71.4943 78.7159C71.3428 79.1477 71.267 79.6307 71.267 80.1648C71.267 80.6951 71.3428 81.1761 71.4943 81.608C71.6496 82.0398 71.8826 82.3845 72.1932 82.642C72.5076 82.8958 72.9015 83.0227 73.375 83.0227ZM81.348 79.3864V84.5H79.2912V75.7727H81.2571V77.2557H81.3594C81.5601 76.767 81.8802 76.3788 82.3196 76.0909C82.7628 75.803 83.3101 75.6591 83.9616 75.6591C84.5639 75.6591 85.0885 75.7879 85.5355 76.0455C85.9863 76.303 86.3348 76.6761 86.581 77.1648C86.831 77.6534 86.9541 78.2462 86.9503 78.9432V84.5H84.8935V79.2614C84.8935 78.678 84.742 78.2216 84.4389 77.892C84.1397 77.5625 83.7249 77.3977 83.1946 77.3977C82.8348 77.3977 82.5147 77.4773 82.2344 77.6364C81.9579 77.7917 81.7401 78.017 81.581 78.3125C81.4257 78.608 81.348 78.9659 81.348 79.3864ZM92.9048 84.6705C92.0298 84.6705 91.2741 84.4886 90.6378 84.125C90.0052 83.7576 89.5185 83.2386 89.1776 82.5682C88.8366 81.8939 88.6662 81.1004 88.6662 80.1875C88.6662 79.2898 88.8366 78.5019 89.1776 77.8239C89.5223 77.142 90.0033 76.6117 90.6207 76.233C91.2382 75.8504 91.9635 75.6591 92.7969 75.6591C93.3348 75.6591 93.8423 75.7462 94.3196 75.9205C94.8007 76.0909 95.2249 76.3561 95.5923 76.7159C95.9635 77.0758 96.2552 77.5341 96.4673 78.0909C96.6795 78.6439 96.7855 79.303 96.7855 80.0682V80.6989H89.6321V79.3125H94.8139C94.8101 78.9186 94.7249 78.5682 94.5582 78.2614C94.3916 77.9508 94.1586 77.7064 93.8594 77.5284C93.5639 77.3504 93.2192 77.2614 92.8253 77.2614C92.4048 77.2614 92.0355 77.3636 91.7173 77.5682C91.3991 77.7689 91.151 78.0341 90.973 78.3636C90.7988 78.6894 90.7098 79.0473 90.706 79.4375V80.6477C90.706 81.1553 90.7988 81.5909 90.9844 81.9545C91.17 82.3144 91.4295 82.5909 91.7628 82.7841C92.0961 82.9735 92.4863 83.0682 92.9332 83.0682C93.2325 83.0682 93.5033 83.0265 93.7457 82.9432C93.9882 82.8561 94.1984 82.7292 94.3764 82.5625C94.5545 82.3958 94.6889 82.1894 94.7798 81.9432L96.7003 82.1591C96.5791 82.6667 96.348 83.1098 96.0071 83.4886C95.67 83.8636 95.2382 84.1553 94.7116 84.3636C94.1851 84.5682 93.5829 84.6705 92.9048 84.6705ZM102.884 75.7727V77.3636H97.8665V75.7727H102.884ZM99.1051 73.6818H101.162V81.875C101.162 82.1515 101.204 82.3636 101.287 82.5114C101.374 82.6553 101.488 82.7538 101.628 82.8068C101.768 82.8598 101.923 82.8864 102.094 82.8864C102.223 82.8864 102.34 82.8769 102.446 82.858C102.556 82.839 102.639 82.822 102.696 82.8068L103.043 84.4148C102.933 84.4527 102.776 84.4943 102.571 84.5398C102.37 84.5852 102.124 84.6117 101.832 84.6193C101.317 84.6345 100.853 84.5568 100.44 84.3864C100.027 84.2121 99.6998 83.9432 99.4574 83.5795C99.2188 83.2159 99.1013 82.7614 99.1051 82.2159V73.6818ZM104.604 84.5V75.7727H106.661V84.5H104.604ZM105.638 74.5341C105.312 74.5341 105.032 74.4261 104.797 74.2102C104.562 73.9905 104.445 73.7273 104.445 73.4205C104.445 73.1098 104.562 72.8466 104.797 72.6307C105.032 72.411 105.312 72.3011 105.638 72.3011C105.967 72.3011 106.248 72.411 106.479 72.6307C106.714 72.8466 106.831 73.1098 106.831 73.4205C106.831 73.7273 106.714 73.9905 106.479 74.2102C106.248 74.4261 105.967 74.5341 105.638 74.5341ZM108.662 84.5V83.1932L113.162 77.5511V77.4773H108.81V75.7727H115.679V77.1761L111.395 82.7216V82.7955H115.827V84.5H108.662ZM121.374 84.6705C120.499 84.6705 119.743 84.4886 119.107 84.125C118.474 83.7576 117.987 83.2386 117.646 82.5682C117.305 81.8939 117.135 81.1004 117.135 80.1875C117.135 79.2898 117.305 78.5019 117.646 77.8239C117.991 77.142 118.472 76.6117 119.089 76.233C119.707 75.8504 120.432 75.6591 121.266 75.6591C121.804 75.6591 122.311 75.7462 122.788 75.9205C123.269 76.0909 123.694 76.3561 124.061 76.7159C124.432 77.0758 124.724 77.5341 124.936 78.0909C125.148 78.6439 125.254 79.303 125.254 80.0682V80.6989H118.101V79.3125H123.283C123.279 78.9186 123.194 78.5682 123.027 78.2614C122.86 77.9508 122.627 77.7064 122.328 77.5284C122.033 77.3504 121.688 77.2614 121.294 77.2614C120.874 77.2614 120.504 77.3636 120.186 77.5682C119.868 77.7689 119.62 78.0341 119.442 78.3636C119.268 78.6894 119.179 79.0473 119.175 79.4375V80.6477C119.175 81.1553 119.268 81.5909 119.453 81.9545C119.639 82.3144 119.898 82.5909 120.232 82.7841C120.565 82.9735 120.955 83.0682 121.402 83.0682C121.701 83.0682 121.972 83.0265 122.214 82.9432C122.457 82.8561 122.667 82.7292 122.845 82.5625C123.023 82.3958 123.158 82.1894 123.249 81.9432L125.169 82.1591C125.048 82.6667 124.817 83.1098 124.476 83.4886C124.139 83.8636 123.707 84.1553 123.18 84.3636C122.654 84.5682 122.052 84.6705 121.374 84.6705ZM132.241 87.7727C131.961 87.7727 131.702 87.75 131.463 87.7045C131.228 87.6629 131.041 87.6136 130.901 87.5568L131.378 85.9545C131.677 86.0417 131.944 86.0833 132.179 86.0795C132.414 86.0758 132.62 86.0019 132.798 85.858C132.98 85.7178 133.134 85.483 133.259 85.1534L133.435 84.6818L130.27 75.7727H132.452L134.463 82.3636H134.554L136.571 75.7727H138.759L135.264 85.5568C135.101 86.0189 134.885 86.4148 134.616 86.7443C134.348 87.0777 134.018 87.3314 133.628 87.5057C133.241 87.6837 132.779 87.7727 132.241 87.7727ZM143.692 84.6705C142.839 84.6705 142.101 84.483 141.476 84.108C140.851 83.733 140.366 83.2083 140.021 82.5341C139.68 81.8598 139.51 81.072 139.51 80.1705C139.51 79.2689 139.68 78.4792 140.021 77.8011C140.366 77.1231 140.851 76.5966 141.476 76.2216C142.101 75.8466 142.839 75.6591 143.692 75.6591C144.544 75.6591 145.283 75.8466 145.908 76.2216C146.533 76.5966 147.016 77.1231 147.357 77.8011C147.701 78.4792 147.874 79.2689 147.874 80.1705C147.874 81.072 147.701 81.8598 147.357 82.5341C147.016 83.2083 146.533 83.733 145.908 84.108C145.283 84.483 144.544 84.6705 143.692 84.6705ZM143.703 83.0227C144.165 83.0227 144.552 82.8958 144.862 82.642C145.173 82.3845 145.404 82.0398 145.555 81.608C145.711 81.1761 145.788 80.6951 145.788 80.1648C145.788 79.6307 145.711 79.1477 145.555 78.7159C145.404 78.2803 145.173 77.9337 144.862 77.6761C144.552 77.4186 144.165 77.2898 143.703 77.2898C143.23 77.2898 142.836 77.4186 142.521 77.6761C142.211 77.9337 141.978 78.2803 141.822 78.7159C141.671 79.1477 141.595 79.6307 141.595 80.1648C141.595 80.6951 141.671 81.1761 141.822 81.608C141.978 82.0398 142.211 82.3845 142.521 82.642C142.836 82.8958 143.23 83.0227 143.703 83.0227ZM155.182 80.8295V75.7727H157.239V84.5H155.244V82.9489H155.153C154.956 83.4375 154.633 83.8371 154.182 84.1477C153.735 84.4583 153.184 84.6136 152.528 84.6136C151.956 84.6136 151.451 84.4867 151.011 84.233C150.576 83.9754 150.235 83.6023 149.989 83.1136C149.742 82.6212 149.619 82.0265 149.619 81.3295V75.7727H151.676V81.0114C151.676 81.5644 151.828 82.0038 152.131 82.3295C152.434 82.6553 152.831 82.8182 153.324 82.8182C153.627 82.8182 153.92 82.7443 154.205 82.5966C154.489 82.4489 154.722 82.2292 154.903 81.9375C155.089 81.642 155.182 81.2727 155.182 80.8295ZM159.354 84.5V75.7727H161.348V77.2273H161.439C161.598 76.7235 161.871 76.3352 162.257 76.0625C162.647 75.786 163.092 75.6477 163.592 75.6477C163.706 75.6477 163.833 75.6534 163.973 75.6648C164.117 75.6723 164.236 75.6856 164.331 75.7045V77.5966C164.244 77.5663 164.106 77.5398 163.916 77.517C163.731 77.4905 163.551 77.4773 163.376 77.4773C163.001 77.4773 162.664 77.5587 162.365 77.7216C162.07 77.8807 161.837 78.1023 161.666 78.3864C161.496 78.6705 161.411 78.9981 161.411 79.3693V84.5H159.354ZM174.024 75.7727V77.3636H169.007V75.7727H174.024ZM170.246 73.6818H172.303V81.875C172.303 82.1515 172.344 82.3636 172.428 82.5114C172.515 82.6553 172.628 82.7538 172.768 82.8068C172.909 82.8598 173.064 82.8864 173.234 82.8864C173.363 82.8864 173.481 82.8769 173.587 82.858C173.696 82.839 173.78 82.822 173.837 82.8068L174.183 84.4148C174.073 84.4527 173.916 84.4943 173.712 84.5398C173.511 84.5852 173.265 84.6117 172.973 84.6193C172.458 84.6345 171.994 84.5568 171.581 84.3864C171.168 84.2121 170.84 83.9432 170.598 83.5795C170.359 83.2159 170.242 82.7614 170.246 82.2159V73.6818ZM175.744 84.5V75.7727H177.739V77.2273H177.83C177.989 76.7235 178.261 76.3352 178.648 76.0625C179.038 75.786 179.483 75.6477 179.983 75.6477C180.097 75.6477 180.223 75.6534 180.364 75.6648C180.508 75.6723 180.627 75.6856 180.722 75.7045V77.5966C180.634 77.5663 180.496 77.5398 180.307 77.517C180.121 77.4905 179.941 77.4773 179.767 77.4773C179.392 77.4773 179.055 77.5587 178.756 77.7216C178.46 77.8807 178.227 78.1023 178.057 78.3864C177.886 78.6705 177.801 78.9981 177.801 79.3693V84.5H175.744ZM184.443 84.6761C183.89 84.6761 183.392 84.5777 182.949 84.3807C182.509 84.1799 182.161 83.8845 181.903 83.4943C181.65 83.1042 181.523 82.6231 181.523 82.0511C181.523 81.5587 181.614 81.1515 181.795 80.8295C181.977 80.5076 182.225 80.25 182.54 80.0568C182.854 79.8636 183.208 79.7178 183.602 79.6193C184 79.517 184.411 79.4432 184.835 79.3977C185.347 79.3447 185.761 79.2973 186.08 79.2557C186.398 79.2102 186.629 79.142 186.773 79.0511C186.92 78.9564 186.994 78.8106 186.994 78.6136V78.5795C186.994 78.1515 186.867 77.8201 186.614 77.5852C186.36 77.3504 185.994 77.233 185.517 77.233C185.013 77.233 184.614 77.3428 184.318 77.5625C184.027 77.7822 183.83 78.0417 183.727 78.3409L181.807 78.0682C181.958 77.5379 182.208 77.0947 182.557 76.7386C182.905 76.3788 183.331 76.1098 183.835 75.9318C184.339 75.75 184.896 75.6591 185.506 75.6591C185.926 75.6591 186.345 75.7083 186.761 75.8068C187.178 75.9053 187.559 76.0682 187.903 76.2955C188.248 76.5189 188.525 76.8239 188.733 77.2102C188.945 77.5966 189.051 78.0795 189.051 78.6591V84.5H187.074V83.3011H187.006C186.881 83.5436 186.705 83.7708 186.477 83.983C186.254 84.1913 185.972 84.3598 185.631 84.4886C185.294 84.6136 184.898 84.6761 184.443 84.6761ZM184.977 83.1648C185.39 83.1648 185.748 83.0833 186.051 82.9205C186.354 82.7538 186.587 82.5341 186.75 82.2614C186.917 81.9886 187 81.6913 187 81.3693V80.3409C186.936 80.3939 186.826 80.4432 186.67 80.4886C186.519 80.5341 186.348 80.5739 186.159 80.608C185.97 80.642 185.782 80.6723 185.597 80.6989C185.411 80.7254 185.25 80.7481 185.114 80.767C184.807 80.8087 184.532 80.8769 184.29 80.9716C184.047 81.0663 183.856 81.1989 183.716 81.3693C183.576 81.536 183.506 81.7519 183.506 82.017C183.506 82.3958 183.644 82.6818 183.92 82.875C184.197 83.0682 184.549 83.1648 184.977 83.1648ZM195.54 75.7727V77.3636H190.381V75.7727H195.54ZM191.67 84.5V74.9489C191.67 74.3617 191.792 73.8731 192.034 73.483C192.28 73.0928 192.61 72.8011 193.023 72.608C193.436 72.4148 193.894 72.3182 194.398 72.3182C194.754 72.3182 195.07 72.3466 195.347 72.4034C195.623 72.4602 195.828 72.5114 195.96 72.5568L195.551 74.1477C195.464 74.1212 195.354 74.0947 195.222 74.0682C195.089 74.0379 194.941 74.0227 194.778 74.0227C194.396 74.0227 194.125 74.1155 193.966 74.3011C193.811 74.483 193.733 74.7443 193.733 75.0852V84.5H191.67ZM201.571 75.7727V77.3636H196.412V75.7727H201.571ZM197.702 84.5V74.9489C197.702 74.3617 197.823 73.8731 198.065 73.483C198.312 73.0928 198.641 72.8011 199.054 72.608C199.467 72.4148 199.925 72.3182 200.429 72.3182C200.785 72.3182 201.101 72.3466 201.378 72.4034C201.654 72.4602 201.859 72.5114 201.991 72.5568L201.582 74.1477C201.495 74.1212 201.385 74.0947 201.253 74.0682C201.12 74.0379 200.973 74.0227 200.81 74.0227C200.427 74.0227 200.156 74.1155 199.997 74.3011C199.842 74.483 199.764 74.7443 199.764 75.0852V84.5H197.702ZM203.182 84.5V75.7727H205.239V84.5H203.182ZM204.216 74.5341C203.89 74.5341 203.61 74.4261 203.375 74.2102C203.14 73.9905 203.023 73.7273 203.023 73.4205C203.023 73.1098 203.14 72.8466 203.375 72.6307C203.61 72.411 203.89 72.3011 204.216 72.3011C204.545 72.3011 204.826 72.411 205.057 72.6307C205.292 72.8466 205.409 73.1098 205.409 73.4205C205.409 73.7273 205.292 73.9905 205.057 74.2102C204.826 74.4261 204.545 74.5341 204.216 74.5341ZM211.161 84.6705C210.289 84.6705 209.541 84.4792 208.916 84.0966C208.295 83.714 207.816 83.1856 207.479 82.5114C207.145 81.8333 206.979 81.053 206.979 80.1705C206.979 79.2841 207.149 78.5019 207.49 77.8239C207.831 77.142 208.312 76.6117 208.933 76.233C209.558 75.8504 210.297 75.6591 211.149 75.6591C211.857 75.6591 212.484 75.7898 213.03 76.0511C213.579 76.3087 214.017 76.6742 214.342 77.1477C214.668 77.6174 214.854 78.1667 214.899 78.7955H212.933C212.854 78.375 212.664 78.0246 212.365 77.7443C212.07 77.4602 211.674 77.3182 211.178 77.3182C210.757 77.3182 210.388 77.4318 210.07 77.6591C209.751 77.8826 209.503 78.2045 209.325 78.625C209.151 79.0455 209.064 79.5492 209.064 80.1364C209.064 80.7311 209.151 81.2424 209.325 81.6705C209.5 82.0947 209.744 82.4223 210.058 82.6534C210.376 82.8807 210.75 82.9943 211.178 82.9943C211.481 82.9943 211.751 82.9375 211.99 82.8239C212.232 82.7064 212.435 82.5379 212.598 82.3182C212.761 82.0985 212.873 81.8314 212.933 81.517H214.899C214.85 82.1345 214.668 82.6818 214.354 83.1591C214.039 83.6326 213.611 84.0038 213.07 84.2727C212.528 84.5379 211.892 84.6705 211.161 84.6705Z" fill="white"/>
<rect y="112.5" width="44" height="44" rx="12" fill="white" fill-opacity="0.12"/>
<path d="M33.1686 135.448C32.9999 133.554 32.7219 133.185 32.6169 133.046C32.3755 132.725 31.9893 132.516 31.5805 132.296C31.5574 132.284 31.5374 132.266 31.5222 132.245C31.507 132.224 31.4969 132.199 31.4928 132.173C31.4886 132.148 31.4906 132.121 31.4984 132.096C31.5062 132.071 31.5197 132.049 31.5379 132.03C31.6136 131.953 31.6717 131.861 31.7084 131.759C31.745 131.658 31.7593 131.55 31.7502 131.442C31.7326 131.252 31.644 131.075 31.502 130.947C31.3601 130.818 31.1751 130.748 30.9838 130.75H30.2526C30.2212 130.75 30.1899 130.752 30.1588 130.756C30.1375 130.747 30.1153 130.739 30.0927 130.734C29.6596 129.819 29.0666 128.565 27.8376 127.953C26.0146 127.047 22.6565 127 22.0002 127C21.344 127 17.9858 127.047 16.1652 127.952C14.9361 128.564 14.3432 129.817 13.9101 130.733L13.9063 130.74C13.8847 130.743 13.8635 130.749 13.843 130.756C13.8119 130.752 13.7806 130.75 13.7493 130.75H13.0166C12.8253 130.748 12.6403 130.818 12.4984 130.947C12.3564 131.075 12.2678 131.252 12.2502 131.442C12.2419 131.55 12.2568 131.657 12.2939 131.758C12.3311 131.859 12.3895 131.951 12.4654 132.027C12.4835 132.046 12.497 132.068 12.5048 132.093C12.5127 132.118 12.5146 132.145 12.5105 132.171C12.5063 132.196 12.4962 132.221 12.481 132.242C12.4658 132.263 12.4458 132.281 12.4227 132.293C12.014 132.514 11.6258 132.724 11.3863 133.043C11.2813 133.184 11.0038 133.551 10.8346 135.445C10.7408 136.511 10.7268 137.614 10.8004 138.325C10.9546 139.802 11.2438 140.694 11.256 140.731C11.3004 140.866 11.3821 140.985 11.4916 141.075C11.6011 141.166 11.734 141.223 11.8747 141.241V141.25C11.8747 141.449 11.9538 141.64 12.0944 141.78C12.2351 141.921 12.4258 142 12.6247 142H15.2497C15.4487 142 15.6394 141.921 15.7801 141.78C15.9207 141.64 15.9997 141.449 15.9997 141.25C16.4033 141.25 16.6841 141.178 16.9818 141.101C17.4115 140.985 17.8508 140.908 18.2943 140.871C19.7244 140.734 21.1466 140.688 22.0002 140.688C22.8365 140.688 24.3215 140.734 25.754 140.871C26.1992 140.908 26.6402 140.986 27.0716 141.102C27.3566 141.175 27.6271 141.242 28.0016 141.25C28.0016 141.448 28.0806 141.639 28.2213 141.78C28.3619 141.921 28.5527 142 28.7516 142H31.3766C31.5755 142 31.7663 141.921 31.9069 141.78C32.0476 141.639 32.1266 141.448 32.1266 141.25V141.244C32.2677 141.227 32.401 141.169 32.5109 141.079C32.6207 140.989 32.7027 140.869 32.7472 140.734C32.7594 140.697 33.0486 139.805 33.2029 138.328C33.2765 137.617 33.2633 136.516 33.1686 135.448ZM15.2657 131.374C15.6407 130.577 16.0696 129.675 16.8332 129.295C17.9366 128.746 20.2236 128.498 22.0002 128.498C23.7768 128.498 26.0638 128.744 27.1672 129.295C27.9308 129.675 28.3579 130.577 28.7347 131.374L28.7816 131.476C28.809 131.534 28.8211 131.597 28.8168 131.661C28.8125 131.725 28.7918 131.787 28.7569 131.841C28.7219 131.894 28.6738 131.938 28.617 131.968C28.5603 131.998 28.4969 132.013 28.4329 132.011C26.8752 131.969 23.594 131.834 22.0002 131.834C20.4065 131.834 17.1252 131.972 15.5652 132.014C15.5012 132.016 15.4378 132.001 15.381 131.971C15.3243 131.942 15.2762 131.898 15.2412 131.844C15.2062 131.79 15.1856 131.729 15.1813 131.665C15.1769 131.601 15.189 131.537 15.2165 131.479C15.2329 131.444 15.2502 131.409 15.2657 131.374ZM15.8249 135.107C15.0186 135.204 14.2071 135.252 13.3949 135.25C12.898 135.25 12.3857 135.109 12.2905 134.667C12.2254 134.369 12.2324 134.202 12.2676 134.034C12.2971 133.891 12.344 133.787 12.5783 133.75C13.1877 133.656 13.5285 133.774 14.526 134.068C15.1874 134.262 15.6646 134.522 15.9365 134.727C16.0729 134.828 16.0002 135.092 15.8249 135.107ZM26.2021 138.95C25.5852 139.021 24.3515 138.995 22.0143 138.995C19.6771 138.995 18.4438 139.021 17.8269 138.95C17.1904 138.88 16.379 138.278 16.933 137.741C17.3019 137.388 18.1626 137.124 19.3086 136.975C20.4547 136.826 20.9399 136.75 22.0096 136.75C23.0793 136.75 23.5152 136.797 24.7105 136.975C25.9058 137.154 26.8091 137.422 27.0861 137.742C27.5915 138.316 26.8382 138.876 26.2021 138.953V138.95ZM31.7099 134.666C31.6161 135.111 31.1005 135.25 30.6055 135.25C29.7778 135.25 28.9508 135.202 28.1286 135.106C27.9852 135.092 27.9186 134.841 28.064 134.726C28.3316 134.516 28.814 134.262 29.4744 134.067C30.4719 133.773 31.0471 133.656 31.5411 133.754C31.6616 133.778 31.7254 133.907 31.7329 133.988C31.7659 134.214 31.7581 134.444 31.7099 134.667V134.666Z" fill="white"/>
<path d="M55.1477 140.5V128.864H59.6023C60.4432 128.864 61.142 128.996 61.6989 129.261C62.2595 129.523 62.678 129.881 62.9545 130.335C63.2348 130.79 63.375 131.305 63.375 131.881C63.375 132.354 63.2841 132.759 63.1023 133.097C62.9205 133.43 62.6761 133.701 62.3693 133.909C62.0625 134.117 61.7197 134.267 61.3409 134.358V134.472C61.7538 134.494 62.1496 134.621 62.5284 134.852C62.911 135.08 63.2235 135.402 63.4659 135.818C63.7083 136.235 63.8295 136.739 63.8295 137.33C63.8295 137.932 63.6837 138.473 63.392 138.955C63.1004 139.432 62.661 139.809 62.0739 140.085C61.4867 140.362 60.7481 140.5 59.858 140.5H55.1477ZM57.2557 138.739H59.5227C60.2879 138.739 60.839 138.593 61.1761 138.301C61.517 138.006 61.6875 137.627 61.6875 137.165C61.6875 136.82 61.6023 136.509 61.4318 136.233C61.2614 135.953 61.0189 135.733 60.7045 135.574C60.3902 135.411 60.0152 135.33 59.5795 135.33H57.2557V138.739ZM57.2557 133.812H59.3409C59.7045 133.812 60.0322 133.746 60.3239 133.614C60.6155 133.477 60.8447 133.286 61.0114 133.04C61.1818 132.79 61.267 132.494 61.267 132.153C61.267 131.703 61.108 131.331 60.7898 131.04C60.4754 130.748 60.0076 130.602 59.3864 130.602H57.2557V133.812ZM71.1349 136.83V131.773H73.1918V140.5H71.1974V138.949H71.1065C70.9096 139.437 70.5857 139.837 70.1349 140.148C69.688 140.458 69.1368 140.614 68.4815 140.614C67.9096 140.614 67.4039 140.487 66.9645 140.233C66.5289 139.975 66.188 139.602 65.9418 139.114C65.6955 138.621 65.5724 138.027 65.5724 137.33V131.773H67.6293V137.011C67.6293 137.564 67.7808 138.004 68.0838 138.33C68.3868 138.655 68.7846 138.818 69.277 138.818C69.58 138.818 69.8736 138.744 70.1577 138.597C70.4418 138.449 70.6747 138.229 70.8565 137.938C71.0421 137.642 71.1349 137.273 71.1349 136.83ZM76.5852 143.773C76.3049 143.773 76.0455 143.75 75.8068 143.705C75.572 143.663 75.3845 143.614 75.2443 143.557L75.7216 141.955C76.0208 142.042 76.2879 142.083 76.5227 142.08C76.7576 142.076 76.964 142.002 77.142 141.858C77.3239 141.718 77.4773 141.483 77.6023 141.153L77.7784 140.682L74.6136 131.773H76.7955L78.8068 138.364H78.8977L80.9148 131.773H83.1023L79.608 141.557C79.4451 142.019 79.2292 142.415 78.9602 142.744C78.6913 143.078 78.3617 143.331 77.9716 143.506C77.5852 143.684 77.1231 143.773 76.5852 143.773ZM88.5852 140.5V128.864H90.6932V138.733H95.8182V140.5H88.5852ZM100.068 140.676C99.5152 140.676 99.017 140.578 98.5739 140.381C98.1345 140.18 97.786 139.884 97.5284 139.494C97.2746 139.104 97.1477 138.623 97.1477 138.051C97.1477 137.559 97.2386 137.152 97.4205 136.83C97.6023 136.508 97.8504 136.25 98.1648 136.057C98.4792 135.864 98.8333 135.718 99.2273 135.619C99.625 135.517 100.036 135.443 100.46 135.398C100.972 135.345 101.386 135.297 101.705 135.256C102.023 135.21 102.254 135.142 102.398 135.051C102.545 134.956 102.619 134.811 102.619 134.614V134.58C102.619 134.152 102.492 133.82 102.239 133.585C101.985 133.35 101.619 133.233 101.142 133.233C100.638 133.233 100.239 133.343 99.9432 133.562C99.6515 133.782 99.4545 134.042 99.3523 134.341L97.4318 134.068C97.5833 133.538 97.8333 133.095 98.1818 132.739C98.5303 132.379 98.9564 132.11 99.4602 131.932C99.964 131.75 100.521 131.659 101.131 131.659C101.551 131.659 101.97 131.708 102.386 131.807C102.803 131.905 103.184 132.068 103.528 132.295C103.873 132.519 104.15 132.824 104.358 133.21C104.57 133.597 104.676 134.08 104.676 134.659V140.5H102.699V139.301H102.631C102.506 139.544 102.33 139.771 102.102 139.983C101.879 140.191 101.597 140.36 101.256 140.489C100.919 140.614 100.523 140.676 100.068 140.676ZM100.602 139.165C101.015 139.165 101.373 139.083 101.676 138.92C101.979 138.754 102.212 138.534 102.375 138.261C102.542 137.989 102.625 137.691 102.625 137.369V136.341C102.561 136.394 102.451 136.443 102.295 136.489C102.144 136.534 101.973 136.574 101.784 136.608C101.595 136.642 101.407 136.672 101.222 136.699C101.036 136.725 100.875 136.748 100.739 136.767C100.432 136.809 100.157 136.877 99.9148 136.972C99.6723 137.066 99.4811 137.199 99.3409 137.369C99.2008 137.536 99.1307 137.752 99.1307 138.017C99.1307 138.396 99.2689 138.682 99.5455 138.875C99.822 139.068 100.174 139.165 100.602 139.165ZM106.744 140.5V131.773H108.71V133.256H108.812C108.994 132.756 109.295 132.366 109.716 132.085C110.136 131.801 110.638 131.659 111.222 131.659C111.812 131.659 112.311 131.803 112.716 132.091C113.125 132.375 113.413 132.763 113.58 133.256H113.67C113.864 132.771 114.189 132.384 114.648 132.097C115.11 131.805 115.657 131.659 116.29 131.659C117.093 131.659 117.748 131.913 118.256 132.42C118.763 132.928 119.017 133.669 119.017 134.642V140.5H116.955V134.96C116.955 134.419 116.811 134.023 116.523 133.773C116.235 133.519 115.883 133.392 115.466 133.392C114.97 133.392 114.581 133.547 114.301 133.858C114.025 134.165 113.886 134.564 113.886 135.057V140.5H111.869V134.875C111.869 134.424 111.733 134.064 111.46 133.795C111.191 133.527 110.839 133.392 110.403 133.392C110.108 133.392 109.839 133.468 109.597 133.619C109.354 133.767 109.161 133.977 109.017 134.25C108.873 134.519 108.801 134.833 108.801 135.193V140.5H106.744ZM121.195 140.5V128.864H123.251V133.216H123.337C123.443 133.004 123.592 132.778 123.786 132.54C123.979 132.297 124.24 132.091 124.57 131.92C124.899 131.746 125.32 131.659 125.831 131.659C126.505 131.659 127.113 131.831 127.655 132.176C128.2 132.517 128.632 133.023 128.95 133.693C129.272 134.36 129.433 135.178 129.433 136.148C129.433 137.106 129.276 137.92 128.962 138.591C128.647 139.261 128.219 139.773 127.678 140.125C127.136 140.477 126.522 140.653 125.837 140.653C125.337 140.653 124.922 140.57 124.592 140.403C124.263 140.237 123.998 140.036 123.797 139.801C123.6 139.562 123.446 139.337 123.337 139.125H123.217V140.5H121.195ZM123.212 136.136C123.212 136.701 123.291 137.195 123.45 137.619C123.613 138.044 123.846 138.375 124.149 138.614C124.456 138.848 124.827 138.966 125.263 138.966C125.717 138.966 126.098 138.845 126.405 138.602C126.712 138.356 126.943 138.021 127.098 137.597C127.257 137.169 127.337 136.682 127.337 136.136C127.337 135.595 127.259 135.114 127.104 134.693C126.948 134.273 126.717 133.943 126.411 133.705C126.104 133.466 125.721 133.347 125.263 133.347C124.823 133.347 124.45 133.462 124.143 133.693C123.837 133.924 123.604 134.248 123.445 134.665C123.289 135.081 123.212 135.572 123.212 136.136ZM134.989 140.67C134.136 140.67 133.398 140.483 132.773 140.108C132.148 139.733 131.663 139.208 131.318 138.534C130.977 137.86 130.807 137.072 130.807 136.17C130.807 135.269 130.977 134.479 131.318 133.801C131.663 133.123 132.148 132.597 132.773 132.222C133.398 131.847 134.136 131.659 134.989 131.659C135.841 131.659 136.58 131.847 137.205 132.222C137.83 132.597 138.313 133.123 138.653 133.801C138.998 134.479 139.17 135.269 139.17 136.17C139.17 137.072 138.998 137.86 138.653 138.534C138.313 139.208 137.83 139.733 137.205 140.108C136.58 140.483 135.841 140.67 134.989 140.67ZM135 139.023C135.462 139.023 135.848 138.896 136.159 138.642C136.47 138.384 136.701 138.04 136.852 137.608C137.008 137.176 137.085 136.695 137.085 136.165C137.085 135.631 137.008 135.148 136.852 134.716C136.701 134.28 136.47 133.934 136.159 133.676C135.848 133.419 135.462 133.29 135 133.29C134.527 133.29 134.133 133.419 133.818 133.676C133.508 133.934 133.275 134.28 133.119 134.716C132.968 135.148 132.892 135.631 132.892 136.165C132.892 136.695 132.968 137.176 133.119 137.608C133.275 138.04 133.508 138.384 133.818 138.642C134.133 138.896 134.527 139.023 135 139.023Z" fill="white"/>
<defs>
<clipPath id="clip0_108_2778">
<rect width="24" height="24" fill="white" transform="translate(10 66.5)"/>
</clipPath>
</defs>
</svg>
