<svg width="170" height="17" viewBox="0 0 170 17" fill="none" xmlns="http://www.w3.org/2000/svg">
<path d="M4.69483 8.83391C5.40727 9.06458 5.86397 9.6182 5.86397 10.4302C5.86397 11.5466 4.98711 12.1925 3.30647 12.1925H0V5.73364H3.1238C4.72223 5.73364 5.54428 6.40721 5.54428 7.41295C5.54428 8.05884 5.21546 8.5571 4.69483 8.83391ZM2.94112 6.85933H1.47056V8.38179H2.94112C3.6627 8.38179 4.05545 8.12343 4.05545 7.61595C4.05545 7.10846 3.6627 6.85933 2.94112 6.85933ZM3.19687 11.0668C3.96412 11.0668 4.37514 10.8269 4.37514 10.2733C4.37514 9.72893 3.96412 9.47057 3.19687 9.47057H1.47056V11.0668H3.19687Z" fill="white"/>
<path d="M12.4038 5.73364L9.91942 9.90424V12.1925H8.43973V9.88579L5.96444 5.73364H7.53547L9.24352 8.60323L10.9516 5.73364H12.4038Z" fill="white"/>
<path d="M113.717 12.0205L124.037 0.5L115.581 0.540487L111.301 6.91659L109.358 0.570279L65.7988 0.778824L63.5841 5.12985L83.3693 5.03512L60.1047 12.1222L58.3331 8.4103L64.8414 0.783408L56.3849 0.823894L52.5801 6.42265L50.5761 6.43224L49.657 10.7771L51.8015 10.7668L54.0599 16.3365L98.417 16.1242L100.154 11.9304L79.4111 12.0297L102.355 4.47918L106.536 11.8999L105.757 16.089L113.096 16.0539L113.717 12.0205Z" fill="white"/>
<path d="M36.5997 0.918618L34.51 4.64898L35.3055 10.2257L35.868 14.1689L36.1895 16.4221L48.4754 16.3633L49.657 10.7771L50.5761 6.43224L51.7577 0.846048L44.418 0.881187L42.541 9.416L40.4291 0.900285L36.5997 0.918618Z" fill="white"/>
<path d="M29.159 14.201L35.868 14.1689L35.3055 10.2257L31.3754 10.2445L29.159 14.201Z" fill="white"/>
<path d="M29.8983 0.950702L19.9146 16.5L27.8925 16.4618L29.159 14.201L31.3754 10.2445L34.51 4.64898L36.5997 0.918618L29.8983 0.950702Z" fill="white"/>
<path d="M134.32 12.3753C133.24 12.3753 132.151 12.0221 131.548 11.5082L132.083 10.2021C132.657 10.6625 133.513 10.9836 134.33 10.9836C135.263 10.9836 135.642 10.6411 135.642 10.1807C135.642 8.77834 131.684 9.74182 131.684 6.95843C131.684 5.68449 132.618 4.62467 134.553 4.62467C135.409 4.62467 136.284 4.84948 136.917 5.2884L136.43 6.60515C135.798 6.20906 135.146 6.01636 134.544 6.01636C133.61 6.01636 133.25 6.40175 133.25 6.87279C133.25 8.25378 137.208 7.301 137.208 10.0523C137.208 11.3048 136.265 12.3753 134.32 12.3753Z" fill="white"/>
<path d="M139.6 12.2469V6.16624H137.422V4.75313H143.354V6.16624H141.176V12.2469H139.6Z" fill="white"/>
<path d="M147.112 12.3753C145.177 12.3753 144.029 11.1549 144.029 8.94962V4.75313H145.605V8.88539C145.605 10.3092 146.169 10.898 147.122 10.898C148.085 10.898 148.639 10.3092 148.639 8.88539V4.75313H150.195V8.94962C150.195 11.1549 149.048 12.3753 147.112 12.3753Z" fill="white"/>
<path d="M151.752 12.2469V4.75313H154.845C157.072 4.75313 158.599 6.23047 158.599 8.5C158.599 10.7695 157.072 12.2469 154.845 12.2469H151.752ZM153.328 10.8231H154.767C156.119 10.8231 157.004 9.93452 157.004 8.5C157.004 7.06548 156.119 6.17694 154.767 6.17694H153.328V10.8231Z" fill="white"/>
<path d="M159.787 12.2469V4.75313H161.363V12.2469H159.787Z" fill="white"/>
<path d="M166.275 12.3753C164.126 12.3753 162.55 10.7267 162.55 8.5C162.55 6.27329 164.126 4.62467 166.275 4.62467C168.415 4.62467 170 6.26258 170 8.5C170 10.7374 168.415 12.3753 166.275 12.3753ZM166.275 10.898C167.491 10.898 168.405 9.92381 168.405 8.5C168.405 7.07619 167.491 6.102 166.275 6.102C165.059 6.102 164.145 7.07619 164.145 8.5C164.145 9.92381 165.059 10.898 166.275 10.898Z" fill="white"/>
</svg>
